<?xml version="1.0" standalone="no"?>
<!DOCTYPE svg PUBLIC "-//W3C//DTD SVG 20010904//EN"
 "http://www.w3.org/TR/2001/REC-SVG-20010904/DTD/svg10.dtd">
<svg version="1.0" xmlns="http://www.w3.org/2000/svg"
 width="72.000000pt" height="77.000000pt" viewBox="0 0 72.000000 77.000000"
 preserveAspectRatio="xMidYMid meet">

<g transform="translate(0.000000,77.000000) scale(0.100000,-0.100000)"
fill="#000000" stroke="none">
<path d="M0 385 l0 -385 360 0 360 0 0 385 0 385 -360 0 -360 0 0 -385z m570
76 c0 -123 -69 -218 -165 -229 -56 -6 -98 11 -134 56 l-29 34 -13 -23 c-7 -13
-15 -40 -19 -59 -7 -43 -34 -48 -38 -6 -5 45 6 73 44 116 40 44 82 60 157 60
30 0 46 4 42 10 -8 13 -80 13 -124 0 -19 -5 -37 -8 -39 -5 -2 2 5 17 17 33 28
40 88 62 167 62 57 0 68 3 87 25 20 22 23 23 35 8 7 -10 12 -45 12 -82z"/>
</g>
</svg>
